# xmcd
#
# Track frame offsets: 
#        183
#        18885
#        34698
#        57070
#        69180
#        87055
#        102458
#        110178
#        132603
#        142535
#        159718
#        169900
#        188705
#
# Disc length: 2656 seconds
#
# Revision: 2
# Processed by: cddbd v1.5.1PL0 Copyright (c) Steve Scherf et al.
# Submitted via: ExactAudioCopy v0.95a5
#
DISCID=a70a5e0d
DTITLE=Folk Team - Otevrte! Jsou tady lidé..
DYEAR=1993
DGENRE=Folk
TTITLE0=Otevrte, jsou tady lidé
TTITLE1=Kam vlastne krácís
TTITLE2=Ze prý jsem blázen
TTITLE3=Ten lístek neschovávej
TTITLE4=Motýlí hra
TTITLE5=Rysavá záda koní
TTITLE6=Beze slov
TTITLE7=Jahodová pole naveky
TTITLE8=Korida
TTITLE9=Milencum
TTITLE10=Spát 8 hodin denne
TTITLE11=V krajinách vzpomínkových
TTITLE12=Odcházím z domova
EXTD=
EXTT0=
EXTT1=
EXTT2=
EXTT3=
EXTT4=
EXTT5=
EXTT6=
EXTT7=
EXTT8=
EXTT9=
EXTT10=
EXTT11=
EXTT12=
PLAYORDER=
